{"glyphs":{" ":{"ha":415,"x_min":0,"x_max":0,"o":""},".":{"ha":153,"x_min":39,"x_max":128,"o":"m 83 -6 q 74 -6 83 -6 q 52 8 65 -6 q 39 40 39 21 q 51 71 39 58 q 83 83 64 83 q 115 70 101 83 q 128 39 128 57 q 115 8 128 21 q 83 -6 101 -6 z "},"A":{"ha":864,"x_min":42,"x_max":822,"o":"m 58 0 l 42 0 l 457 972 l 472 979 l 822 0 l 704 0 l 596 306 l 190 306 l 58 0 m 414 822 l 196 319 l 592 319 l 414 822 z "},"B":{"ha":792,"x_min":97,"x_max":743,"o":"m 97 961 q 382 972 258 972 q 725 743 725 972 q 675 595 725 657 q 515 511 625 533 q 682 447 621 499 q 743 268 743 396 q 400 0 743 0 l 97 0 l 97 961 m 213 14 l 400 14 q 576 78 524 14 q 628 276 628 143 q 575 454 628 410 q 418 501 522 499 l 213 501 l 213 14 m 382 958 q 213 949 301 958 l 213 515 l 418 515 q 614 740 614 524 q 556 902 614 846 q 382 958 497 958 z "},"C":{"ha":857,"x_min":69,"x_max":808,"o":"m 554 -6 q 169 142 294 -6 q 97 282 125 194 q 69 494 69 369 q 110 719 69 619 q 222 872 151 818 q 554 974 360 974 q 663 965 610 974 q 742 946 715 956 l 767 936 l 763 922 q 554 960 668 960 q 308 864 407 960 q 203 656 233 793 q 185 465 185 578 q 217 258 185 353 q 290 117 249 163 q 389 44 331 71 q 482 13 447 17 q 566 8 517 8 q 678 18 615 8 q 772 36 740 28 l 804 46 l 808 32 q 554 -6 703 -6 z "},"D":{"ha":864,"x_min":97,"x_max":794,"o":"m 208 971 q 328 974 269 974 q 453 961 388 974 q 584 915 519 949 q 694 827 649 881 q 767 686 739 774 q 794 474 794 599 q 753 249 794 349 q 642 97 713 150 q 310 -6 504 -6 q 167 0 242 -6 l 97 0 l 97 971 l 208 971 m 213 11 q 286 8 242 8 q 353 10 331 8 q 414 22 375 11 q 486 50 453 32 q 556 103 519 68 q 619 188 593 139 q 679 485 679 301 q 647 710 679 615 q 574 851 615 806 q 475 924 533 897 q 382 956 417 951 q 301 960 347 960 q 213 956 256 960 l 213 11 z "},"E":{"ha":729,"x_min":97,"x_max":681,"o":"m 650 972 l 650 958 l 213 958 l 213 542 l 618 542 l 618 528 l 213 528 l 213 14 l 681 14 l 681 0 l 97 0 l 97 972 l 650 972 z "},"F":{"ha":699,"x_min":97,"x_max":650,"o":"m 650 972 l 650 958 l 213 958 l 213 514 l 618 514 l 618 500 l 213 500 l 213 0 l 97 0 l 97 972 l 650 972 z "},"G":{"ha":901,"x_min":69,"x_max":868,"o":"m 554 -6 q 169 142 294 -6 q 97 282 125 194 q 69 494 69 369 q 110 719 69 619 q 222 872 151 818 q 554 974 360 974 q 676 965 617 974 q 765 946 736 956 l 794 936 l 790 922 q 554 960 682 960 q 308 864 407 960 q 203 656 233 793 q 185 465 185 578 q 217 258 185 353 q 290 117 249 163 q 389 44 331 71 q 482 13 447 17 q 565 8 517 8 q 693 19 613 8 l 693 306 l 525 306 l 525 319 l 868 319 l 868 306 l 808 306 l 808 32 q 554 -6 703 -6 z "},"H":{"ha":821,"x_min":69,"x_max":751,"o":"m 185 0 l 69 0 l 69 972 l 185 972 l 185 525 l 636 525 l 636 972 l 751 972 l 751 0 l 636 0 l 636 511 l 185 511 l 185 0 z "},"I":{"ha":442,"x_min":97,"x_max":344,"o":"m 97 958 l 97 972 l 344 972 l 344 958 l 276 958 l 276 14 l 344 14 l 344 0 l 97 0 l 97 14 l 161 14 l 161 958 l 97 958 z "},"J":{"ha":407,"x_min":-28,"x_max":310,"o":"m 63 958 l 63 972 l 310 972 l 310 183 q 265 37 310 74 q 131 0 221 0 q -28 26 42 0 l -24 38 q 114 11 43 11 q 177 51 161 11 q 193 182 193 92 l 193 958 l 63 958 z "},"K":{"ha":835,"x_min":97,"x_max":793,"o":"m 213 972 l 213 358 l 661 972 l 672 963 l 424 624 l 793 0 l 664 0 l 353 526 l 213 333 l 213 0 l 97 0 l 97 972 l 213 972 z "},"L":{"ha":667,"x_min":97,"x_max":625,"o":"m 625 0 l 97 0 l 97 972 l 213 972 l 213 14 l 625 14 l 625 0 z "},"M":{"ha":1103,"x_min":90,"x_max":1006,"o":"m 108 0 l 90 0 l 211 972 l 257 972 l 549 74 l 839 972 l 885 972 l 1006 0 l 890 0 l 794 778 l 543 0 l 456 0 l 201 768 l 108 0 z "},"N":{"ha":824,"x_min":90,"x_max":733,"o":"m 108 0 l 90 0 l 90 972 l 138 972 l 715 74 l 715 972 l 733 972 l 733 0 l 632 0 l 108 806 l 108 0 z "},"O":{"ha":1000,"x_min":69,"x_max":931,"o":"m 69 463 q 192 847 69 715 q 508 978 315 978 q 816 864 701 978 q 931 500 931 750 q 808 122 931 250 q 482 -6 686 -6 q 193 96 306 -6 q 102 242 135 149 q 69 463 69 336 m 504 964 q 434 964 504 964 q 274 839 364 964 q 185 472 185 714 q 269 119 185 231 q 495 8 354 8 q 726 134 636 8 q 815 499 815 260 q 730 851 815 739 q 504 964 644 964 z "},"P":{"ha":794,"x_min":97,"x_max":725,"o":"m 97 961 q 381 972 258 972 q 725 729 725 972 q 667 532 725 617 q 572 459 636 486 q 418 432 508 432 l 213 432 l 213 0 l 97 0 l 97 961 m 382 958 q 213 949 301 958 l 213 446 l 418 446 q 614 726 614 454 q 556 898 614 838 q 382 958 497 958 z "},"Q":{"ha":1000,"x_min":69,"x_max":1190,"o":"m 69 483 q 192 844 69 710 q 500 978 314 978 q 806 878 692 978 q 931 483 931 765 q 831 153 931 281 q 572 0 732 25 q 783 -117 660 -19 q 886 -192 831 -154 q 1190 -275 1011 -275 l 1190 -289 q 797 -233 938 -289 q 626 -117 679 -185 q 584 -62 603 -86 q 546 -22 565 -37 q 500 -6 526 -6 q 329 17 403 -6 q 194 92 256 39 q 69 483 69 201 m 185 486 q 500 8 185 8 q 726 136 636 8 q 815 486 815 264 q 500 964 815 964 q 274 836 364 964 q 185 486 185 708 z "},"R":{"ha":835,"x_min":97,"x_max":793,"o":"m 97 961 q 382 972 258 972 q 725 743 725 972 q 678 569 725 646 q 515 468 631 493 l 793 0 l 664 0 l 392 460 l 213 460 l 213 0 l 97 0 l 97 961 m 382 958 q 213 949 301 958 l 213 474 l 418 474 q 614 740 614 482 q 556 902 614 846 q 382 958 497 958 z "},"S":{"ha":715,"x_min":49,"x_max":667,"o":"m 610 914 q 372 963 483 963 q 197 915 260 963 q 135 785 135 868 q 240 628 135 683 q 344 584 288 604 q 457 539 400 564 q 561 482 514 514 q 638 394 608 450 q 667 251 667 338 q 618 103 667 164 q 501 20 569 42 q 340 -1 432 -1 q 49 83 169 -1 l 56 94 q 174 35 101 58 q 324 13 247 13 q 516 65 436 13 q 596 218 596 117 q 490 392 596 329 q 387 443 443 419 q 274 492 331 467 q 169 550 217 518 q 64 747 64 619 q 132 912 64 849 q 337 975 200 975 q 615 928 474 975 l 610 914 z "},"T":{"ha":681,"x_min":42,"x_max":639,"o":"m 397 0 l 282 0 l 282 958 l 42 958 l 42 972 l 639 972 l 639 958 l 397 958 l 397 0 z "},"U":{"ha":874,"x_min":97,"x_max":783,"o":"m 765 972 l 783 972 l 783 417 q 697 97 783 199 q 472 -6 611 -6 q 324 10 385 -6 q 208 69 263 26 q 97 417 97 156 l 97 972 l 213 972 l 213 418 q 289 81 213 165 q 370 24 328 39 q 472 8 413 8 q 685 106 606 8 q 765 418 765 204 l 765 972 z "},"V":{"ha":819,"x_min":42,"x_max":778,"o":"m 751 972 q 778 904 778 946 q 763 833 778 869 l 407 0 l 392 -7 l 42 972 l 160 972 l 450 150 l 746 833 q 761 906 761 868 q 740 964 761 943 l 751 972 z "},"W":{"ha":1175,"x_min":42,"x_max":1133,"o":"m 1107 972 q 1133 904 1133 946 q 1118 833 1133 869 l 790 0 l 775 -7 l 592 575 l 365 0 l 350 -7 l 42 972 l 160 972 l 408 150 l 585 597 l 467 972 l 585 972 l 833 150 l 1101 833 q 1117 906 1117 868 q 1096 964 1117 943 l 1107 972 z "},"X":{"ha":765,"x_min":42,"x_max":724,"o":"m 83 0 l 65 0 l 317 497 l 42 972 l 158 972 l 397 561 l 606 972 l 622 972 l 407 544 l 724 0 l 607 0 l 326 482 l 83 0 z "},"Y":{"ha":740,"x_min":42,"x_max":699,"o":"m 672 972 q 699 904 699 946 q 683 833 699 869 l 435 329 l 435 0 l 319 0 l 319 299 l 42 972 l 160 972 l 425 346 l 667 833 q 682 906 682 868 q 661 964 682 943 l 672 972 z "},"Z":{"ha":757,"x_min":49,"x_max":708,"o":"m 85 958 l 85 972 l 651 972 l 651 958 l 161 14 l 579 14 q 653 28 619 14 q 697 68 686 42 l 708 63 q 699 45 706 56 q 661 17 693 35 q 583 0 629 0 l 49 0 l 49 14 l 536 958 l 85 958 z "}}}
